<svg xmlns="http://www.w3.org/2000/svg" width="15.568" height="15.568" viewBox="0 0 15.568 15.568">
  <defs>
    <style>
      .cls-1 {
        fill: #f05d05;
      }
    </style>
  </defs>
  <path id="Icon_awesome-phone" data-name="Icon awesome-phone" class="cls-1" d="M15,.748,11.839.018A.734.734,0,0,0,11,.44L9.544,3.846a.728.728,0,0,0,.21.851L11.6,6.205a11.269,11.269,0,0,1-5.388,5.388L4.7,9.751a.729.729,0,0,0-.851-.21L.444,11a.738.738,0,0,0-.426.839L.748,15a.729.729,0,0,0,.711.566A14.106,14.106,0,0,0,15.567,1.459.729.729,0,0,0,15,.748Z" transform="translate(0.001 0.001)"/>
</svg>
