<svg xmlns="http://www.w3.org/2000/svg" width="9.278" height="9.278" viewBox="0 0 9.278 9.278">
  <path id="Icon_awesome-check-square" data-name="Icon awesome-check-square" d="M8.284,11.528H.994A.994.994,0,0,1,0,10.534V3.244A.994.994,0,0,1,.994,2.25h7.29a.994.994,0,0,1,.994.994v7.29A.994.994,0,0,1,8.284,11.528ZM4.045,9.5l3.81-3.81a.331.331,0,0,0,0-.469l-.469-.469a.331.331,0,0,0-.469,0L3.81,7.857,2.36,6.406a.331.331,0,0,0-.469,0l-.469.469a.331.331,0,0,0,0,.469L3.576,9.5a.331.331,0,0,0,.469,0Z" transform="translate(0 -2.25)"/>
</svg>
