<svg xmlns="http://www.w3.org/2000/svg" width="23.063" height="15.568" viewBox="0 0 23.063 15.568">
  <defs>
    <style>
      .cls-1 {
        fill: #f05d05;
      }
    </style>
  </defs>
  <path id="Icon_zocial-email" data-name="Icon zocial-email" class="cls-1" d="M.072,18.257V5.447q0-.022.067-.423l7.539,6.45L.161,18.7a1.885,1.885,0,0,1-.089-.445Zm1-14.122a.958.958,0,0,1,.378-.067h20.3a1.259,1.259,0,0,1,.4.067l-7.562,6.472-1,.8-1.979,1.624L9.635,11.407l-1-.8ZM1.1,19.569,8.679,12.3l2.936,2.38L14.55,12.3l7.584,7.272a1.068,1.068,0,0,1-.378.067H1.451a1.007,1.007,0,0,1-.356-.067Zm14.456-8.1,7.517-6.45a1.327,1.327,0,0,1,.067.423v12.81a1.7,1.7,0,0,1-.067.445Z" transform="translate(-0.072 -4.068)"/>
</svg>
