<svg xmlns="http://www.w3.org/2000/svg" width="120.474" height="175.282" viewBox="0 0 120.474 175.282">
  <defs>
    <style>
      .cls-1 {
        fill: #f05d05;
      }
    </style>
  </defs>
  <path id="Icon_awesome-question" data-name="Icon awesome-question" class="cls-1" d="M62.2,0C34.872,0,17.173,11.2,3.278,31.162A8.225,8.225,0,0,0,5.05,42.417l14.768,11.2A8.216,8.216,0,0,0,31.2,52.195c8.575-10.743,14.937-16.929,28.332-16.929,10.532,0,23.559,6.778,23.559,16.991,0,7.721-6.373,11.686-16.773,17.516-12.127,6.8-28.175,15.26-28.175,36.427v3.351a8.216,8.216,0,0,0,8.216,8.216h24.81a8.216,8.216,0,0,0,8.216-8.216v-1.976c0-14.673,42.885-15.284,42.885-54.99C122.274,22.683,91.257,0,62.2,0ZM58.767,127.853a23.715,23.715,0,1,0,23.715,23.714A23.742,23.742,0,0,0,58.767,127.853Z" transform="translate(-1.8)"/>
</svg>
